<svg xmlns="http://www.w3.org/2000/svg" xmlns:xlink="http://www.w3.org/1999/xlink" xmlns:lucid="lucid" width="1460" height="780.42"><g transform="translate(340 -169.0587342608964)" lucid:page-tab-id="yMqBN2yP9OoY"><path d="M-500 0h2000v1000H-500z" fill="#fff"/><path d="M740 680.67c0 137.4-156.7 248.8-350 248.8S40 818.07 40 680.67c0-137.42 156.7-248.8 350-248.8s350 111.38 350 248.8z" stroke="#e24adb" stroke-width="2" fill="#e24adb" fill-opacity=".4"/><path d="M580 439.06c0 138.07-156.7 250-350 250s-350-111.93-350-250 156.7-250 350-250 350 111.93 350 250z" stroke="#efd95d" stroke-width="2" fill="#efd95d" fill-opacity=".4"/><path d="M400 679.47c0 138.08-156.7 250-350 250s-350-111.92-350-250c0-138.07 156.7-250 350-250s350 111.93 350 250z" stroke="#49c1a1" stroke-width="2" fill="#49c1a1" fill-opacity=".4"/><path d="M110 228c0-4.42 3.58-8 8-8h224c4.42 0 8 3.58 8 8v44c0 4.42-3.58 8-8 8H118c-4.42 0-8-3.58-8-8z" stroke="#000" stroke-opacity="0" fill="#fff" fill-opacity="0"/><use xlink:href="#a" transform="matrix(1,0,0,1,115,225) translate(53.377777777777794 31.316666666666663)"/><path d="M-320 667.56c0-4.4 3.58-8 8-8h224c4.42 0 8 3.6 8 8v44c0 4.42-3.58 8-8 8h-224c-4.42 0-8-3.58-8-8z" stroke="#000" stroke-opacity="0" fill="#fff" fill-opacity="0"/><use xlink:href="#b" transform="matrix(1,0,0,1,-315,664.563913817557) translate(65.51944444444447 31.316666666666656)"/><path d="M540 667.56c0-4.4 3.58-8 8-8h224c4.42 0 8 3.6 8 8v44c0 4.42-3.58 8-8 8H548c-4.42 0-8-3.58-8-8z" stroke="#000" stroke-opacity="0" fill="#fff" fill-opacity="0"/><use xlink:href="#c" transform="matrix(1,0,0,1,545,664.563913817557) translate(82.3175925925926 31.316666666666663)"/><path d="M5 288c0-4.42 3.58-8 8-8h474c4.42 0 8 3.58 8 8v101c0 4.42-3.58 8-8 8H13c-4.42 0-8-3.58-8-8z" stroke="#000" stroke-opacity="0" fill="#fff" fill-opacity="0"/><use xlink:href="#d" transform="matrix(1,0,0,1,10,285) translate(0 14.4)"/><use xlink:href="#e" transform="matrix(1,0,0,1,10,285) translate(55.900000000000006 14.4)"/><use xlink:href="#f" transform="matrix(1,0,0,1,10,285) translate(5.85 36)"/><use xlink:href="#g" transform="matrix(1,0,0,1,10,285) translate(18 36)"/><use xlink:href="#h" transform="matrix(1,0,0,1,10,285) translate(109.75 36)"/><use xlink:href="#i" transform="matrix(1,0,0,1,10,285) translate(157.65 36)"/><use xlink:href="#j" transform="matrix(1,0,0,1,10,285) translate(211.65 36)"/><use xlink:href="#k" transform="matrix(1,0,0,1,10,285) translate(236.65 36)"/><use xlink:href="#l" transform="matrix(1,0,0,1,10,285) translate(264.6 36)"/><use xlink:href="#m" transform="matrix(1,0,0,1,10,285) translate(308.5 36)"/><use xlink:href="#n" transform="matrix(1,0,0,1,10,285) translate(358.1 36)"/><use xlink:href="#o" transform="matrix(1,0,0,1,10,285) translate(425.95000000000005 36)"/><use xlink:href="#p" transform="matrix(1,0,0,1,10,285) translate(18 57.6)"/><use xlink:href="#q" transform="matrix(1,0,0,1,10,285) translate(70.95 57.6)"/><use xlink:href="#r" transform="matrix(1,0,0,1,10,285) translate(148.8 57.6)"/><use xlink:href="#f" transform="matrix(1,0,0,1,10,285) translate(5.85 79.20000000000002)"/><use xlink:href="#s" transform="matrix(1,0,0,1,10,285) translate(18 79.20000000000002)"/><use xlink:href="#t" transform="matrix(1,0,0,1,10,285) translate(106.10000000000001 79.20000000000002)"/><use xlink:href="#i" transform="matrix(1,0,0,1,10,285) translate(204.90000000000003 79.20000000000002)"/><use xlink:href="#u" transform="matrix(1,0,0,1,10,285) translate(258.90000000000003 79.20000000000002)"/><use xlink:href="#v" transform="matrix(1,0,0,1,10,285) translate(297.85 79.20000000000002)"/><use xlink:href="#f" transform="matrix(1,0,0,1,10,285) translate(5.85 100.80000000000001)"/><use xlink:href="#w" transform="matrix(1,0,0,1,10,285) translate(18 100.80000000000001)"/><path d="M-200 748c0-4.42 3.58-8 8-8H72c4.42 0 8 3.58 8 8v154c0 4.42-3.58 8-8 8h-264c-4.42 0-8-3.58-8-8z" stroke="#000" stroke-opacity="0" fill="#fff" fill-opacity="0"/><g><use xlink:href="#f" transform="matrix(1,0,0,1,-195,745) translate(5.85 14.4)"/><use xlink:href="#x" transform="matrix(1,0,0,1,-195,745) translate(18 14.4)"/><use xlink:href="#y" transform="matrix(1,0,0,1,-195,745) translate(115.95 14.4)"/><use xlink:href="#f" transform="matrix(1,0,0,1,-195,745) translate(5.85 36)"/><use xlink:href="#z" transform="matrix(1,0,0,1,-195,745) translate(18 36)"/><use xlink:href="#i" transform="matrix(1,0,0,1,-195,745) translate(116.80000000000001 36)"/><use xlink:href="#A" transform="matrix(1,0,0,1,-195,745) translate(170.8 36)"/><use xlink:href="#f" transform="matrix(1,0,0,1,-195,745) translate(5.85 57.6)"/><use xlink:href="#B" transform="matrix(1,0,0,1,-195,745) translate(18 57.6)"/><use xlink:href="#f" transform="matrix(1,0,0,1,-195,745) translate(5.85 79.20000000000002)"/><use xlink:href="#C" transform="matrix(1,0,0,1,-195,745) translate(18 79.20000000000002)"/><use xlink:href="#D" transform="matrix(1,0,0,1,-195,745) translate(119.80000000000001 79.20000000000002)"/><use xlink:href="#E" transform="matrix(1,0,0,1,-195,745) translate(139.8 79.20000000000002)"/><use xlink:href="#f" transform="matrix(1,0,0,1,-195,745) translate(5.85 100.80000000000001)"/><use xlink:href="#w" transform="matrix(1,0,0,1,-195,745) translate(18 100.80000000000001)"/></g><path d="M420 749.2c0-4.42 3.58-8 8-8h224c4.42 0 8 3.58 8 8v87.44c0 4.4-3.58 8-8 8H428c-4.42 0-8-3.6-8-8z" stroke="#000" stroke-opacity="0" fill="#fff" fill-opacity="0"/><g><use xlink:href="#f" transform="matrix(1,0,0,1,425,746.1999999999996) translate(5.85 14.4)"/><use xlink:href="#F" transform="matrix(1,0,0,1,425,746.1999999999996) translate(18 14.4)"/><use xlink:href="#G" transform="matrix(1,0,0,1,425,746.1999999999996) translate(108.85000000000001 14.4)"/><use xlink:href="#H" transform="matrix(1,0,0,1,425,746.1999999999996) translate(146.8 14.4)"/><use xlink:href="#I" transform="matrix(1,0,0,1,425,746.1999999999996) translate(18 36)"/><use xlink:href="#J" transform="matrix(1,0,0,1,425,746.1999999999996) translate(18 57.6)"/><use xlink:href="#K" transform="matrix(1,0,0,1,425,746.1999999999996) translate(160.35 57.6)"/><use xlink:href="#L" transform="matrix(1,0,0,1,425,746.1999999999996) translate(205 57.6)"/><use xlink:href="#f" transform="matrix(1,0,0,1,425,746.1999999999996) translate(5.85 79.20000000000002)"/><use xlink:href="#M" transform="matrix(1,0,0,1,425,746.1999999999996) translate(18 79.20000000000002)"/><use xlink:href="#N" transform="matrix(1,0,0,1,425,746.1999999999996) translate(88.85 79.20000000000002)"/><use xlink:href="#O" transform="matrix(1,0,0,1,425,746.1999999999996) translate(183.39999999999998 79.20000000000002)"/></g><path d="M-80 484.56c0-4.4 3.58-8 8-8h184c4.42 0 8 3.6 8 8V572c0 4.42-3.58 8-8 8H-72c-4.42 0-8-3.58-8-8z" stroke="#000" stroke-opacity="0" fill="#fff" fill-opacity="0"/><g><use xlink:href="#f" transform="matrix(1,0,0,1,-75,481.56391381755714) translate(5.85 14.4)"/><use xlink:href="#P" transform="matrix(1,0,0,1,-75,481.56391381755714) translate(18 14.4)"/><use xlink:href="#Q" transform="matrix(1,0,0,1,-75,481.56391381755714) translate(68.95 14.4)"/><use xlink:href="#R" transform="matrix(1,0,0,1,-75,481.56391381755714) translate(112.85000000000001 14.4)"/><use xlink:href="#S" transform="matrix(1,0,0,1,-75,481.56391381755714) translate(123.80000000000001 14.4)"/><use xlink:href="#T" transform="matrix(1,0,0,1,-75,481.56391381755714) translate(18 36)"/><use xlink:href="#A" transform="matrix(1,0,0,1,-75,481.56391381755714) translate(53 36)"/><use xlink:href="#f" transform="matrix(1,0,0,1,-75,481.56391381755714) translate(5.85 57.6)"/><use xlink:href="#U" transform="matrix(1,0,0,1,-75,481.56391381755714) translate(18 57.6)"/><use xlink:href="#V" transform="matrix(1,0,0,1,-75,481.56391381755714) translate(69.95 57.6)"/></g><path d="M360 480.12c0-4.42 3.58-8 8-8h164c4.42 0 8 3.58 8 8v87.43c0 4.42-3.58 8-8 8H368c-4.42 0-8-3.58-8-8z" stroke="#000" stroke-opacity="0" fill="#fff" fill-opacity="0"/><g><use xlink:href="#f" transform="matrix(1,0,0,1,365,477.11532925747485) translate(5.85 14.4)"/><use xlink:href="#W" transform="matrix(1,0,0,1,365,477.11532925747485) translate(18 14.4)"/><use xlink:href="#X" transform="matrix(1,0,0,1,365,477.11532925747485) translate(71 14.4)"/><use xlink:href="#Y" transform="matrix(1,0,0,1,365,477.11532925747485) translate(18 36)"/><use xlink:href="#Z" transform="matrix(1,0,0,1,365,477.11532925747485) translate(97.75 36)"/><use xlink:href="#aa" transform="matrix(1,0,0,1,365,477.11532925747485) translate(18 57.6)"/></g><path d="M120 535.86c0-4.42 3.58-8 8-8h284c4.42 0 8 3.58 8 8v145.2c0 4.42-3.58 8-8 8H128c-4.42 0-8-3.58-8-8z" stroke="#000" stroke-opacity="0" fill="#fff" fill-opacity="0"/><g><use xlink:href="#ab" transform="matrix(1,0,0,1,125,532.8587342608963) translate(5.85 14.4)"/><use xlink:href="#ac" transform="matrix(1,0,0,1,125,532.8587342608963) translate(18 14.4)"/><use xlink:href="#ad" transform="matrix(1,0,0,1,125,532.8587342608963) translate(99.80000000000001 14.4)"/><use xlink:href="#ae" transform="matrix(1,0,0,1,125,532.8587342608963) translate(18 36)"/><use xlink:href="#af" transform="matrix(1,0,0,1,125,532.8587342608963) translate(172.65 36)"/><use xlink:href="#ag" transform="matrix(1,0,0,1,125,532.8587342608963) translate(18 57.6)"/><use xlink:href="#ah" transform="matrix(1,0,0,1,125,532.8587342608963) translate(121.9 57.6)"/><use xlink:href="#ai" transform="matrix(1,0,0,1,125,532.8587342608963) translate(144.85000000000002 57.6)"/><use xlink:href="#ab" transform="matrix(1,0,0,1,125,532.8587342608963) translate(5.85 79.20000000000002)"/><use xlink:href="#aj" transform="matrix(1,0,0,1,125,532.8587342608963) translate(18 79.20000000000002)"/><use xlink:href="#ab" transform="matrix(1,0,0,1,125,532.8587342608963) translate(5.85 100.80000000000001)"/><use xlink:href="#ak" transform="matrix(1,0,0,1,125,532.8587342608963) translate(18 100.80000000000001)"/><use xlink:href="#ab" transform="matrix(1,0,0,1,125,532.8587342608963) translate(5.85 122.4)"/><use xlink:href="#al" transform="matrix(1,0,0,1,125,532.8587342608963) translate(18 122.4)"/></g><path d="M720 388c0-4.42 3.58-8 8-8h364c4.42 0 8 3.58 8 8v123.8c0 4.42-3.58 8-8 8H728c-4.42 0-8-3.58-8-8z" stroke="#000" stroke-opacity="0" fill="#fff" fill-opacity="0"/><g><use xlink:href="#am" transform="matrix(1,0,0,1,725,385) translate(0 25.066666666666663)"/><use xlink:href="#an" transform="matrix(1,0,0,1,725,385) translate(0 51.99999999999999)"/><use xlink:href="#ao" transform="matrix(1,0,0,1,725,385) translate(0 73.6)"/><use xlink:href="#ap" transform="matrix(1,0,0,1,725,385) translate(20 73.6)"/><use xlink:href="#aq" transform="matrix(1,0,0,1,725,385) translate(37.95 73.6)"/><use xlink:href="#ar" transform="matrix(1,0,0,1,725,385) translate(67.95 73.6)"/><use xlink:href="#as" transform="matrix(1,0,0,1,725,385) translate(111.9 73.6)"/><use xlink:href="#T" transform="matrix(1,0,0,1,725,385) translate(183.75 73.6)"/><use xlink:href="#at" transform="matrix(1,0,0,1,725,385) translate(218.75 73.6)"/><use xlink:href="#au" transform="matrix(1,0,0,1,725,385) translate(276.45 73.6)"/><use xlink:href="#Z" transform="matrix(1,0,0,1,725,385) translate(333.4 73.6)"/><use xlink:href="#av" transform="matrix(1,0,0,1,725,385) translate(0 95.2)"/><use xlink:href="#aw" transform="matrix(1,0,0,1,725,385) translate(29.950000000000003 95.2)"/><use xlink:href="#ax" transform="matrix(1,0,0,1,725,385) translate(69.9 95.2)"/><use xlink:href="#ay" transform="matrix(1,0,0,1,725,385) translate(97.85000000000001 95.2)"/><use xlink:href="#az" transform="matrix(1,0,0,1,725,385) translate(111.80000000000001 95.2)"/><use xlink:href="#aA" transform="matrix(1,0,0,1,725,385) translate(145.8 95.2)"/><use xlink:href="#aB" transform="matrix(1,0,0,1,725,385) translate(208.65000000000003 95.2)"/><use xlink:href="#aC" transform="matrix(1,0,0,1,725,385) translate(262.00000000000006 95.2)"/><use xlink:href="#aD" transform="matrix(1,0,0,1,725,385) translate(290.95000000000005 95.2)"/><use xlink:href="#aE" transform="matrix(1,0,0,1,725,385) translate(0 116.80000000000001)"/></g><defs><path fill="#333" d="M24-248c120-7 223 5 221 122C244-46 201 0 124 0H24v-248zM76-40c74 7 117-18 117-86 0-67-45-88-117-82v168" id="aF"/><path fill="#333" d="M185-48c-13 30-37 53-82 52C43 2 14-33 14-96s30-98 90-98c62 0 83 45 84 108H66c0 31 8 55 39 56 18 0 30-7 34-22zm-45-69c5-46-57-63-70-21-2 6-4 13-4 21h74" id="aG"/><path fill="#333" d="M137-138c1-29-70-34-71-4 15 46 118 7 119 86 1 83-164 76-172 9l43-7c4 19 20 25 44 25 33 8 57-30 24-41C81-84 22-81 20-136c-2-80 154-74 161-7" id="aH"/><path fill="#333" d="M147 0L96-86 75-71V0H25v-261h50v150l67-79h53l-66 74L201 0h-54" id="aI"/><path fill="#333" d="M115-3C79 11 28 4 28-45v-112H4v-33h27l15-45h31v45h36v33H77v99c-1 23 16 31 38 25v30" id="aJ"/><path fill="#333" d="M110-194c64 0 96 36 96 99 0 64-35 99-97 99-61 0-95-36-95-99 0-62 34-99 96-99zm-1 164c35 0 45-28 45-65 0-40-10-65-43-65-34 0-45 26-45 65 0 36 10 65 43 65" id="aK"/><path fill="#333" d="M135-194c53 0 70 44 70 98 0 56-19 98-73 100-31 1-45-17-59-34 3 33 2 69 2 105H25l-1-265h48c2 10 0 23 3 31 11-24 29-35 60-35zM114-30c33 0 39-31 40-66 0-38-9-64-40-64-56 0-55 130 0 130" id="aL"/><g id="a"><use transform="matrix(0.08703703703703701,0,0,0.08703703703703701,0,0)" xlink:href="#aF"/><use transform="matrix(0.08703703703703701,0,0,0.08703703703703701,22.542592592592584,0)" xlink:href="#aG"/><use transform="matrix(0.08703703703703701,0,0,0.08703703703703701,39.94999999999999,0)" xlink:href="#aH"/><use transform="matrix(0.08703703703703701,0,0,0.08703703703703701,57.357407407407386,0)" xlink:href="#aI"/><use transform="matrix(0.08703703703703701,0,0,0.08703703703703701,74.7648148148148,0)" xlink:href="#aJ"/><use transform="matrix(0.08703703703703701,0,0,0.08703703703703701,85.1222222222222,0)" xlink:href="#aK"/><use transform="matrix(0.08703703703703701,0,0,0.08703703703703701,104.1833333333333,0)" xlink:href="#aL"/></g><path fill="#333" d="M230 0l2-204L168 0h-37L68-204 70 0H24v-248h70l56 185 57-185h69V0h-46" id="aM"/><path fill="#333" d="M135-194c52 0 70 43 70 98 0 56-19 99-73 100-30 1-46-15-58-35L72 0H24l1-261h50v104c11-23 29-37 60-37zM114-30c31 0 40-27 40-66 0-37-7-63-39-63s-41 28-41 65c0 36 8 64 40 64" id="aN"/><path fill="#333" d="M25-224v-37h50v37H25zM25 0v-190h50V0H25" id="aO"/><path fill="#333" d="M25 0v-261h50V0H25" id="aP"/><g id="b"><use transform="matrix(0.087037037037037,0,0,0.087037037037037,0,0)" xlink:href="#aM"/><use transform="matrix(0.087037037037037,0,0,0.087037037037037,26.02407407407406,0)" xlink:href="#aK"/><use transform="matrix(0.087037037037037,0,0,0.087037037037037,45.08518518518516,0)" xlink:href="#aN"/><use transform="matrix(0.087037037037037,0,0,0.087037037037037,64.14629629629627,0)" xlink:href="#aO"/><use transform="matrix(0.087037037037037,0,0,0.087037037037037,72.84999999999997,0)" xlink:href="#aP"/><use transform="matrix(0.087037037037037,0,0,0.087037037037037,81.55370370370366,0)" xlink:href="#aG"/></g><path fill="#333" d="M275 0h-61l-44-196L126 0H64L0-248h53L97-49l45-199h58l43 199 44-199h52" id="aQ"/><g id="c"><use transform="matrix(0.08703703703703701,0,0,0.08703703703703701,0,0)" xlink:href="#aQ"/><use transform="matrix(0.08703703703703701,0,0,0.08703703703703701,28.89629629629629,0)" xlink:href="#aG"/><use transform="matrix(0.08703703703703701,0,0,0.08703703703703701,46.30370370370369,0)" xlink:href="#aN"/></g><path fill="#333" d="M190 0L58-211 59 0H30v-248h39L202-35l-2-213h31V0h-41" id="aR"/><path fill="#333" d="M141-36C126-15 110 5 73 4 37 3 15-17 15-53c-1-64 63-63 125-63 3-35-9-54-41-54-24 1-41 7-42 31l-33-3c5-37 33-52 76-52 45 0 72 20 72 64v82c-1 20 7 32 28 27v20c-31 9-61-2-59-35zM48-53c0 20 12 33 32 33 41-3 63-29 60-74-43 2-92-5-92 41" id="aS"/><path fill="#333" d="M59-47c-2 24 18 29 38 22v24C64 9 27 4 27-40v-127H5v-23h24l9-43h21v43h35v23H59v120" id="aT"/><path fill="#333" d="M24-231v-30h32v30H24zM24 0v-190h32V0H24" id="aU"/><path fill="#333" d="M108 0H70L1-190h34L89-25l56-165h34" id="aV"/><path fill="#333" d="M100-194c63 0 86 42 84 106H49c0 40 14 67 53 68 26 1 43-12 49-29l28 8c-11 28-37 45-77 45C44 4 14-33 15-96c1-61 26-98 85-98zm52 81c6-60-76-77-97-28-3 7-6 17-6 28h103" id="aW"/><g id="d"><use transform="matrix(0.05,0,0,0.05,0,0)" xlink:href="#aR"/><use transform="matrix(0.05,0,0,0.05,12.950000000000001,0)" xlink:href="#aS"/><use transform="matrix(0.05,0,0,0.05,22.950000000000003,0)" xlink:href="#aT"/><use transform="matrix(0.05,0,0,0.05,27.950000000000003,0)" xlink:href="#aU"/><use transform="matrix(0.05,0,0,0.05,31.900000000000002,0)" xlink:href="#aV"/><use transform="matrix(0.05,0,0,0.05,40.900000000000006,0)" xlink:href="#aW"/></g><path fill="#333" d="M96-169c-40 0-48 33-48 73s9 75 48 75c24 0 41-14 43-38l32 2c-6 37-31 61-74 61-59 0-76-41-82-99-10-93 101-131 147-64 4 7 5 14 7 22l-32 3c-4-21-16-35-41-35" id="aX"/><path fill="#333" d="M106-169C34-169 62-67 57 0H25v-261h32l-1 103c12-21 28-36 61-36 89 0 53 116 60 194h-32v-121c2-32-8-49-39-48" id="aY"/><path fill="#333" d="M117-194c89-4 53 116 60 194h-32v-121c0-31-8-49-39-48C34-167 62-67 57 0H25l-1-190h30c1 10-1 24 2 32 11-22 29-35 61-36" id="aZ"/><path fill="#333" d="M100-194c62-1 85 37 85 99 1 63-27 99-86 99S16-35 15-95c0-66 28-99 85-99zM99-20c44 1 53-31 53-75 0-43-8-75-51-75s-53 32-53 75 10 74 51 75" id="ba"/><path fill="#333" d="M24 0v-261h32V0H24" id="bb"/><path fill="#333" d="M177-190C167-65 218 103 67 71c-23-6-38-20-44-43l32-5c15 47 100 32 89-28v-30C133-14 115 1 83 1 29 1 15-40 15-95c0-56 16-97 71-98 29-1 48 16 59 35 1-10 0-23 2-32h30zM94-22c36 0 50-32 50-73 0-42-14-75-50-75-39 0-46 34-46 75s6 73 46 73" id="bc"/><path fill="#333" d="M135-143c-3-34-86-38-87 0 15 53 115 12 119 90S17 21 10-45l28-5c4 36 97 45 98 0-10-56-113-15-118-90-4-57 82-63 122-42 12 7 21 19 24 35" id="bd"/><path fill="#333" d="M33-154v-36h34v36H33zM33 0v-36h34V0H33" id="be"/><g id="e"><use transform="matrix(0.05,0,0,0.05,0,0)" xlink:href="#aT"/><use transform="matrix(0.05,0,0,0.05,5,0)" xlink:href="#aW"/><use transform="matrix(0.05,0,0,0.05,15,0)" xlink:href="#aX"/><use transform="matrix(0.05,0,0,0.05,24,0)" xlink:href="#aY"/><use transform="matrix(0.05,0,0,0.05,34,0)" xlink:href="#aZ"/><use transform="matrix(0.05,0,0,0.05,44,0)" xlink:href="#ba"/><use transform="matrix(0.05,0,0,0.05,54,0)" xlink:href="#bb"/><use transform="matrix(0.05,0,0,0.05,57.95,0)" xlink:href="#ba"/><use transform="matrix(0.05,0,0,0.05,67.95,0)" xlink:href="#bc"/><use transform="matrix(0.05,0,0,0.05,77.95,0)" xlink:href="#aU"/><use transform="matrix(0.05,0,0,0.05,81.9,0)" xlink:href="#aW"/><use transform="matrix(0.05,0,0,0.05,91.9,0)" xlink:href="#bd"/><use transform="matrix(0.05,0,0,0.05,100.9,0)" xlink:href="#be"/></g><path fill="#333" d="M62-168c30 0 50 19 50 48S92-70 62-70c-29 0-48-21-48-50s20-48 48-48" id="bf"/><use transform="matrix(0.05,0,0,0.05,0,0)" xlink:href="#bf" id="f"/><path fill="#333" d="M266 0h-40l-56-210L115 0H75L2-248h35L96-30l15-64 43-154h32l59 218 59-218h35" id="bg"/><path fill="#333" d="M63-220v92h138v28H63V0H30v-248h175v28H63" id="bh"/><path fill="#333" d="M114-163C36-179 61-72 57 0H25l-1-190h30c1 12-1 29 2 39 6-27 23-49 58-41v29" id="bi"/><path fill="#333" d="M210-169c-67 3-38 105-44 169h-31v-121c0-29-5-50-35-48C34-165 62-65 56 0H25l-1-190h30c1 10-1 24 2 32 10-44 99-50 107 0 11-21 27-35 58-36 85-2 47 119 55 194h-31v-121c0-29-5-49-35-48" id="bj"/><path fill="#333" d="M68-38c1 34 0 65-14 84H32c9-13 17-26 17-46H33v-38h35" id="bk"/><g id="g"><use transform="matrix(0.05,0,0,0.05,0,0)" xlink:href="#bg"/><use transform="matrix(0.05,0,0,0.05,16.95,0)" xlink:href="#aU"/><use transform="matrix(0.05,0,0,0.05,20.9,0)" xlink:href="#aZ"/><use transform="matrix(0.05,0,0,0.05,30.899999999999995,0)" xlink:href="#bh"/><use transform="matrix(0.05,0,0,0.05,41.85,0)" xlink:href="#ba"/><use transform="matrix(0.05,0,0,0.05,51.85,0)" xlink:href="#bi"/><use transform="matrix(0.05,0,0,0.05,57.800000000000004,0)" xlink:href="#bj"/><use transform="matrix(0.05,0,0,0.05,72.75,0)" xlink:href="#bd"/><use transform="matrix(0.05,0,0,0.05,81.75,0)" xlink:href="#bk"/></g><path fill="#333" d="M30-248c87 1 191-15 191 75 0 78-77 80-158 76V0H30v-248zm33 125c57 0 124 11 124-50 0-59-68-47-124-48v98" id="bl"/><g id="h"><use transform="matrix(0.05,0,0,0.05,0,0)" xlink:href="#bg"/><use transform="matrix(0.05,0,0,0.05,16.95,0)" xlink:href="#bl"/><use transform="matrix(0.05,0,0,0.05,28.950000000000003,0)" xlink:href="#bh"/><use transform="matrix(0.05,0,0,0.05,37.9,0)" xlink:href="#bk"/></g><path fill="#333" d="M115-194c53 0 69 39 70 98 0 66-23 100-70 100C84 3 66-7 56-30L54 0H23l1-261h32v101c10-23 28-34 59-34zm-8 174c40 0 45-34 45-75 0-40-5-75-45-74-42 0-51 32-51 76 0 43 10 73 51 73" id="bm"/><path fill="#333" d="M85-194c31 0 48 13 60 33l-1-100h32l1 261h-30c-2-10 0-23-3-31C134-8 116 4 85 4 32 4 16-35 15-94c0-66 23-100 70-100zm9 24c-40 0-46 34-46 75 0 40 6 74 45 74 42 0 51-32 51-76 0-42-9-74-50-73" id="bn"/><g id="i"><use transform="matrix(0.05,0,0,0.05,0,0)" xlink:href="#bm"/><use transform="matrix(0.05,0,0,0.05,10,0)" xlink:href="#aS"/><use transform="matrix(0.05,0,0,0.05,20,0)" xlink:href="#bd"/><use transform="matrix(0.05,0,0,0.05,29,0)" xlink:href="#aW"/><use transform="matrix(0.05,0,0,0.05,39,0)" xlink:href="#bn"/></g><g id="j"><use transform="matrix(0.05,0,0,0.05,0,0)" xlink:href="#ba"/><use transform="matrix(0.05,0,0,0.05,10,0)" xlink:href="#aZ"/></g><path fill="#333" d="M212-179c-10-28-35-45-73-45-59 0-87 40-87 99 0 60 29 101 89 101 43 0 62-24 78-52l27 14C228-24 195 4 139 4 59 4 22-46 18-125c-6-104 99-153 187-111 19 9 31 26 39 46" id="bo"/><path fill="#333" d="M158-156l-14 65h45v19h-49L124 0h-19l15-72H56L41 0H22l15-72H2v-19h39l14-65H11v-19h48l15-71h20l-16 71h64l16-71h19l-16 71h37v19h-40zm-83 0L61-91h63l14-65H75" id="bp"/><g id="k"><use transform="matrix(0.05,0,0,0.05,0,0)" xlink:href="#bo"/><use transform="matrix(0.05,0,0,0.05,12.950000000000001,0)" xlink:href="#bp"/></g><path fill="#333" d="M87 75C49 33 22-17 22-94c0-76 28-126 65-167h31c-38 41-64 92-64 168S80 34 118 75H87" id="bq"/><g id="l"><use transform="matrix(0.05,0,0,0.05,0,0)" xlink:href="#bq"/><use transform="matrix(0.05,0,0,0.05,5.95,0)" xlink:href="#aS"/><use transform="matrix(0.05,0,0,0.05,15.949999999999998,0)" xlink:href="#bb"/><use transform="matrix(0.05,0,0,0.05,19.9,0)" xlink:href="#bd"/><use transform="matrix(0.05,0,0,0.05,28.899999999999995,0)" xlink:href="#ba"/></g><path fill="#333" d="M232-93c-1 65-40 97-104 97C67 4 28-28 28-90v-158h33c8 89-33 224 67 224 102 0 64-133 71-224h33v155" id="br"/><g id="m"><use transform="matrix(0.05,0,0,0.05,0,0)" xlink:href="#br"/><use transform="matrix(0.05,0,0,0.05,12.950000000000001,0)" xlink:href="#bg"/><use transform="matrix(0.05,0,0,0.05,29.899999999999995,0)" xlink:href="#bl"/><use transform="matrix(0.05,0,0,0.05,39.599999999999994,0)" xlink:href="#bk"/></g><path fill="#333" d="M179-190L93 31C79 59 56 82 12 73V49c39 6 53-20 64-50L1-190h34L92-34l54-156h33" id="bs"/><path fill="#333" d="M33-261c38 41 65 92 65 168S71 34 33 75H2C39 34 66-17 66-93S39-220 2-261h31" id="bt"/><g id="n"><use transform="matrix(0.05,0,0,0.05,0,0)" xlink:href="#bj"/><use transform="matrix(0.05,0,0,0.05,14.950000000000001,0)" xlink:href="#ba"/><use transform="matrix(0.05,0,0,0.05,24.950000000000003,0)" xlink:href="#bd"/><use transform="matrix(0.05,0,0,0.05,33.95,0)" xlink:href="#aT"/><use transform="matrix(0.05,0,0,0.05,38.95,0)" xlink:href="#bb"/><use transform="matrix(0.05,0,0,0.05,42.900000000000006,0)" xlink:href="#bs"/><use transform="matrix(0.05,0,0,0.05,51.900000000000006,0)" xlink:href="#bt"/><use transform="matrix(0.05,0,0,0.05,57.85,0)" xlink:href="#bk"/></g><g id="o"><use transform="matrix(0.05,0,0,0.05,0,0)" xlink:href="#ba"/><use transform="matrix(0.05,0,0,0.05,10,0)" xlink:href="#aT"/><use transform="matrix(0.05,0,0,0.05,15,0)" xlink:href="#aY"/><use transform="matrix(0.05,0,0,0.05,25,0)" xlink:href="#aW"/><use transform="matrix(0.05,0,0,0.05,35,0)" xlink:href="#bi"/></g><g id="p"><use transform="matrix(0.05,0,0,0.05,0,0)" xlink:href="#aZ"/><use transform="matrix(0.05,0,0,0.05,10,0)" xlink:href="#aS"/><use transform="matrix(0.05,0,0,0.05,20,0)" xlink:href="#aT"/><use transform="matrix(0.05,0,0,0.05,25,0)" xlink:href="#aU"/><use transform="matrix(0.05,0,0,0.05,28.950000000000003,0)" xlink:href="#aV"/><use transform="matrix(0.05,0,0,0.05,37.95,0)" xlink:href="#aW"/></g><path fill="#333" d="M206 0h-36l-40-164L89 0H53L-1-190h32L70-26l43-164h34l41 164 42-164h31" id="bu"/><g id="q"><use transform="matrix(0.05,0,0,0.05,0,0)" xlink:href="#bg"/><use transform="matrix(0.05,0,0,0.05,16.95,0)" xlink:href="#aU"/><use transform="matrix(0.05,0,0,0.05,20.9,0)" xlink:href="#aZ"/><use transform="matrix(0.05,0,0,0.05,30.899999999999995,0)" xlink:href="#bn"/><use transform="matrix(0.05,0,0,0.05,40.9,0)" xlink:href="#ba"/><use transform="matrix(0.05,0,0,0.05,50.9,0)" xlink:href="#bu"/><use transform="matrix(0.05,0,0,0.05,63.85,0)" xlink:href="#bd"/></g><g id="r"><use transform="matrix(0.05,0,0,0.05,0,0)" xlink:href="#aT"/><use transform="matrix(0.05,0,0,0.05,5,0)" xlink:href="#aW"/><use transform="matrix(0.05,0,0,0.05,15,0)" xlink:href="#aX"/><use transform="matrix(0.05,0,0,0.05,24,0)" xlink:href="#aY"/></g><path fill="#333" d="M127-220V0H93v-220H8v-28h204v28h-85" id="bv"/><g id="s"><use transform="matrix(0.05,0,0,0.05,0,0)" xlink:href="#bv"/><use transform="matrix(0.05,0,0,0.05,10.3,0)" xlink:href="#bi"/><use transform="matrix(0.05,0,0,0.05,16.25,0)" xlink:href="#aS"/><use transform="matrix(0.05,0,0,0.05,26.25,0)" xlink:href="#bn"/><use transform="matrix(0.05,0,0,0.05,36.25,0)" xlink:href="#aU"/><use transform="matrix(0.05,0,0,0.05,40.2,0)" xlink:href="#aT"/><use transform="matrix(0.05,0,0,0.05,45.2,0)" xlink:href="#aU"/><use transform="matrix(0.05,0,0,0.05,49.150000000000006,0)" xlink:href="#ba"/><use transform="matrix(0.05,0,0,0.05,59.150000000000006,0)" xlink:href="#aZ"/><use transform="matrix(0.05,0,0,0.05,69.15,0)" xlink:href="#aS"/><use transform="matrix(0.05,0,0,0.05,79.15,0)" xlink:href="#bb"/></g><path fill="#333" d="M140-251c81 0 123 46 123 126C263-46 219 4 140 4 59 4 17-45 17-125s42-126 123-126zm0 227c63 0 89-41 89-101s-29-99-89-99c-61 0-89 39-89 99S79-25 140-24" id="bw"/><path fill="#333" d="M24-231v-30h32v30H24zM-9 49c24 4 33-6 33-30v-209h32V24c2 40-23 58-65 49V49" id="bx"/><path fill="#333" d="M16-82v-28h88v28H16" id="by"/><g id="t"><use transform="matrix(0.05,0,0,0.05,0,0)" xlink:href="#bw"/><use transform="matrix(0.05,0,0,0.05,14,0)" xlink:href="#bm"/><use transform="matrix(0.05,0,0,0.05,24,0)" xlink:href="#bx"/><use transform="matrix(0.05,0,0,0.05,27.950000000000003,0)" xlink:href="#aW"/><use transform="matrix(0.05,0,0,0.05,37.95,0)" xlink:href="#aX"/><use transform="matrix(0.05,0,0,0.05,46.95,0)" xlink:href="#aT"/><use transform="matrix(0.05,0,0,0.05,51.95,0)" xlink:href="#aU"/><use transform="matrix(0.05,0,0,0.05,55.900000000000006,0)" xlink:href="#aV"/><use transform="matrix(0.05,0,0,0.05,64.9,0)" xlink:href="#aW"/><use transform="matrix(0.05,0,0,0.05,74.9,0)" xlink:href="#by"/><use transform="matrix(0.05,0,0,0.05,80.85000000000001,0)" xlink:href="#bo"/></g><path fill="#333" d="M240 0l2-218c-23 76-54 145-80 218h-23L58-218 59 0H30v-248h44l77 211c21-75 51-140 76-211h43V0h-30" id="bz"/><g id="u"><use transform="matrix(0.05,0,0,0.05,0,0)" xlink:href="#bz"/><use transform="matrix(0.05,0,0,0.05,14.950000000000001,0)" xlink:href="#aS"/><use transform="matrix(0.05,0,0,0.05,24.950000000000003,0)" xlink:href="#aX"/></g><path fill="#333" d="M101-234c-31-9-42 10-38 44h38v23H63V0H32v-167H5v-23h27c-7-52 17-82 69-68v24" id="bA"/><g id="v"><use transform="matrix(0.05,0,0,0.05,0,0)" xlink:href="#bd"/><use transform="matrix(0.05,0,0,0.05,9,0)" xlink:href="#ba"/><use transform="matrix(0.05,0,0,0.05,19,0)" xlink:href="#bA"/><use transform="matrix(0.05,0,0,0.05,24,0)" xlink:href="#aT"/><use transform="matrix(0.05,0,0,0.05,29,0)" xlink:href="#bu"/><use transform="matrix(0.05,0,0,0.05,41.95,0)" xlink:href="#aS"/><use transform="matrix(0.05,0,0,0.05,51.95,0)" xlink:href="#bi"/><use transform="matrix(0.05,0,0,0.05,57.900000000000006,0)" xlink:href="#aW"/></g><path fill="#333" d="M33 0v-38h34V0H33" id="bB"/><g id="w"><use transform="matrix(0.05,0,0,0.05,0,0)" xlink:href="#bB"/><use transform="matrix(0.05,0,0,0.05,5,0)" xlink:href="#bB"/><use transform="matrix(0.05,0,0,0.05,10,0)" xlink:href="#bB"/><use transform="matrix(0.05,0,0,0.05,15,0)" xlink:href="#bB"/></g><path fill="#333" d="M153-248C145-148 188 4 80 4 36 3 13-21 6-62l32-5c4 25 16 42 43 43 27 0 39-20 39-49v-147H72v-28h81" id="bC"/><g id="x"><use transform="matrix(0.05,0,0,0.05,0,0)" xlink:href="#bC"/><use transform="matrix(0.05,0,0,0.05,9,0)" xlink:href="#aS"/><use transform="matrix(0.05,0,0,0.05,19,0)" xlink:href="#aV"/><use transform="matrix(0.05,0,0,0.05,28,0)" xlink:href="#aS"/><use transform="matrix(0.05,0,0,0.05,38,0)" xlink:href="#by"/><use transform="matrix(0.05,0,0,0.05,43.95,0)" xlink:href="#bm"/><use transform="matrix(0.05,0,0,0.05,53.95,0)" xlink:href="#aS"/><use transform="matrix(0.05,0,0,0.05,63.95,0)" xlink:href="#bd"/><use transform="matrix(0.05,0,0,0.05,72.95,0)" xlink:href="#aW"/><use transform="matrix(0.05,0,0,0.05,82.95,0)" xlink:href="#bn"/></g><path fill="#333" d="M205 0l-28-72H64L36 0H1l101-248h38L239 0h-34zm-38-99l-47-123c-12 45-31 82-46 123h93" id="bD"/><g id="y"><use transform="matrix(0.05,0,0,0.05,0,0)" xlink:href="#bD"/><use transform="matrix(0.05,0,0,0.05,12,0)" xlink:href="#aZ"/><use transform="matrix(0.05,0,0,0.05,22,0)" xlink:href="#bn"/><use transform="matrix(0.05,0,0,0.05,32,0)" xlink:href="#bi"/><use transform="matrix(0.05,0,0,0.05,37.95,0)" xlink:href="#ba"/><use transform="matrix(0.05,0,0,0.05,47.95,0)" xlink:href="#aU"/><use transform="matrix(0.05,0,0,0.05,51.900000000000006,0)" xlink:href="#bn"/></g><g id="z"><use transform="matrix(0.05,0,0,0.05,0,0)" xlink:href="#bw"/><use transform="matrix(0.05,0,0,0.05,14,0)" xlink:href="#bm"/><use transform="matrix(0.05,0,0,0.05,24,0)" xlink:href="#bx"/><use transform="matrix(0.05,0,0,0.05,27.950000000000003,0)" xlink:href="#aW"/><use transform="matrix(0.05,0,0,0.05,37.95,0)" xlink:href="#aX"/><use transform="matrix(0.05,0,0,0.05,46.95,0)" xlink:href="#aT"/><use transform="matrix(0.05,0,0,0.05,51.95,0)" xlink:href="#aU"/><use transform="matrix(0.05,0,0,0.05,55.900000000000006,0)" xlink:href="#aV"/><use transform="matrix(0.05,0,0,0.05,64.9,0)" xlink:href="#aW"/><use transform="matrix(0.05,0,0,0.05,74.9,0)" xlink:href="#by"/><use transform="matrix(0.05,0,0,0.05,80.85000000000001,0)" xlink:href="#bo"/></g><path fill="#333" d="M185-189c-5-48-123-54-124 2 14 75 158 14 163 119 3 78-121 87-175 55-17-10-28-26-33-46l33-7c5 56 141 63 141-1 0-78-155-14-162-118-5-82 145-84 179-34 5 7 8 16 11 25" id="bE"/><g id="A"><use transform="matrix(0.05,0,0,0.05,0,0)" xlink:href="#aU"/><use transform="matrix(0.05,0,0,0.05,3.95,0)" xlink:href="#bw"/><use transform="matrix(0.05,0,0,0.05,17.95,0)" xlink:href="#bE"/></g><path fill="#333" d="M195 0l-74-108L45 0H8l94-129-87-119h37l69 98 67-98h37l-84 118L233 0h-38" id="bF"/><g id="B"><use transform="matrix(0.05,0,0,0.05,0,0)" xlink:href="#bF"/><use transform="matrix(0.05,0,0,0.05,12,0)" xlink:href="#aS"/><use transform="matrix(0.05,0,0,0.05,22,0)" xlink:href="#bj"/><use transform="matrix(0.05,0,0,0.05,36.95,0)" xlink:href="#aS"/><use transform="matrix(0.05,0,0,0.05,46.95,0)" xlink:href="#bi"/><use transform="matrix(0.05,0,0,0.05,52.900000000000006,0)" xlink:href="#aU"/><use transform="matrix(0.05,0,0,0.05,56.85,0)" xlink:href="#aZ"/></g><path fill="#333" d="M115-194c55 1 70 41 70 98S169 2 115 4C84 4 66-9 55-30l1 105H24l-1-265h31l2 30c10-21 28-34 59-34zm-8 174c40 0 45-34 45-75s-6-73-45-74c-42 0-51 32-51 76 0 43 10 73 51 73" id="bG"/><g id="C"><use transform="matrix(0.05,0,0,0.05,0,0)" xlink:href="#aR"/><use transform="matrix(0.05,0,0,0.05,12.950000000000001,0)" xlink:href="#aS"/><use transform="matrix(0.05,0,0,0.05,22.950000000000003,0)" xlink:href="#aT"/><use transform="matrix(0.05,0,0,0.05,27.950000000000003,0)" xlink:href="#aU"/><use transform="matrix(0.05,0,0,0.05,31.900000000000002,0)" xlink:href="#aV"/><use transform="matrix(0.05,0,0,0.05,40.900000000000006,0)" xlink:href="#aW"/><use transform="matrix(0.05,0,0,0.05,50.900000000000006,0)" xlink:href="#bE"/><use transform="matrix(0.05,0,0,0.05,62.900000000000006,0)" xlink:href="#aX"/><use transform="matrix(0.05,0,0,0.05,71.9,0)" xlink:href="#bi"/><use transform="matrix(0.05,0,0,0.05,77.85000000000001,0)" xlink:href="#aU"/><use transform="matrix(0.05,0,0,0.05,81.80000000000001,0)" xlink:href="#bG"/><use transform="matrix(0.05,0,0,0.05,91.80000000000001,0)" xlink:href="#aT"/></g><g id="D"><use transform="matrix(0.05,0,0,0.05,0,0)" xlink:href="#aW"/><use transform="matrix(0.05,0,0,0.05,10,0)" xlink:href="#aT"/></g><g id="E"><use transform="matrix(0.05,0,0,0.05,0,0)" xlink:href="#aS"/><use transform="matrix(0.05,0,0,0.05,10,0)" xlink:href="#bb"/><use transform="matrix(0.05,0,0,0.05,13.949999999999998,0)" xlink:href="#bB"/></g><g id="F"><use transform="matrix(0.05,0,0,0.05,0,0)" xlink:href="#bE"/><use transform="matrix(0.05,0,0,0.05,12,0)" xlink:href="#aW"/><use transform="matrix(0.05,0,0,0.05,22,0)" xlink:href="#bi"/><use transform="matrix(0.05,0,0,0.05,27.950000000000003,0)" xlink:href="#aV"/><use transform="matrix(0.05,0,0,0.05,36.95,0)" xlink:href="#aW"/><use transform="matrix(0.05,0,0,0.05,46.95,0)" xlink:href="#bi"/><use transform="matrix(0.05,0,0,0.05,52.900000000000006,0)" xlink:href="#bd"/><use transform="matrix(0.05,0,0,0.05,61.900000000000006,0)" xlink:href="#aU"/><use transform="matrix(0.05,0,0,0.05,65.85000000000001,0)" xlink:href="#bn"/><use transform="matrix(0.05,0,0,0.05,75.85000000000001,0)" xlink:href="#aW"/></g><g id="G"><use transform="matrix(0.05,0,0,0.05,0,0)" xlink:href="#bu"/><use transform="matrix(0.05,0,0,0.05,12.950000000000001,0)" xlink:href="#aW"/><use transform="matrix(0.05,0,0,0.05,22.950000000000003,0)" xlink:href="#bm"/></g><g id="H"><use transform="matrix(0.05,0,0,0.05,0,0)" xlink:href="#bn"/><use transform="matrix(0.05,0,0,0.05,10,0)" xlink:href="#aW"/><use transform="matrix(0.05,0,0,0.05,20,0)" xlink:href="#aV"/><use transform="matrix(0.05,0,0,0.05,27.649999999999995,0)" xlink:href="#bk"/></g><path fill="#333" d="M30 0v-248h187v28H63v79h144v27H63v87h162V0H30" id="bH"/><g id="I"><use transform="matrix(0.05,0,0,0.05,0,0)" xlink:href="#bD"/><use transform="matrix(0.05,0,0,0.05,12,0)" xlink:href="#bE"/><use transform="matrix(0.05,0,0,0.05,24,0)" xlink:href="#bl"/><use transform="matrix(0.05,0,0,0.05,33.7,0)" xlink:href="#bB"/><use transform="matrix(0.05,0,0,0.05,38.7,0)" xlink:href="#aR"/><use transform="matrix(0.05,0,0,0.05,51.650000000000006,0)" xlink:href="#bH"/><use transform="matrix(0.05,0,0,0.05,63.650000000000006,0)" xlink:href="#bv"/></g><path fill="#333" d="M0 4l72-265h28L28 4H0" id="bI"/><path fill="#333" d="M137 0h-34L2-248h35l83 218 83-218h36" id="bJ"/><g id="J"><use transform="matrix(0.05,0,0,0.05,0,0)" xlink:href="#bg"/><use transform="matrix(0.05,0,0,0.05,16.599999999999998,0)" xlink:href="#aW"/><use transform="matrix(0.05,0,0,0.05,26.599999999999994,0)" xlink:href="#bm"/><use transform="matrix(0.05,0,0,0.05,36.599999999999994,0)" xlink:href="#bh"/><use transform="matrix(0.05,0,0,0.05,47.55,0)" xlink:href="#ba"/><use transform="matrix(0.05,0,0,0.05,57.54999999999999,0)" xlink:href="#bi"/><use transform="matrix(0.05,0,0,0.05,63.5,0)" xlink:href="#bj"/><use transform="matrix(0.05,0,0,0.05,78.45,0)" xlink:href="#bd"/><use transform="matrix(0.05,0,0,0.05,87.45,0)" xlink:href="#bI"/><use transform="matrix(0.05,0,0,0.05,92.45,0)" xlink:href="#bz"/><use transform="matrix(0.05,0,0,0.05,107.4,0)" xlink:href="#bJ"/><use transform="matrix(0.05,0,0,0.05,119.4,0)" xlink:href="#bo"/><use transform="matrix(0.05,0,0,0.05,132.35,0)" xlink:href="#bk"/></g><path fill="#333" d="M197 0v-115H63V0H30v-248h33v105h134v-105h34V0h-34" id="bK"/><g id="K"><use transform="matrix(0.05,0,0,0.05,0,0)" xlink:href="#bl"/><use transform="matrix(0.05,0,0,0.05,12,0)" xlink:href="#bK"/><use transform="matrix(0.05,0,0,0.05,24.950000000000003,0)" xlink:href="#bl"/><use transform="matrix(0.05,0,0,0.05,34.650000000000006,0)" xlink:href="#bk"/></g><g id="L"><use transform="matrix(0.05,0,0,0.05,0,0)" xlink:href="#bB"/><use transform="matrix(0.05,0,0,0.05,5,0)" xlink:href="#bB"/><use transform="matrix(0.05,0,0,0.05,10,0)" xlink:href="#bB"/></g><path fill="#333" d="M160-131c35 5 61 23 61 61C221 17 115-2 30 0v-248c76 3 177-17 177 60 0 33-19 50-47 57zm-97-11c50-1 110 9 110-42 0-47-63-36-110-37v79zm0 115c55-2 124 14 124-45 0-56-70-42-124-44v89" id="bL"/><g id="M"><use transform="matrix(0.05,0,0,0.05,0,0)" xlink:href="#bL"/><use transform="matrix(0.05,0,0,0.05,12,0)" xlink:href="#bi"/><use transform="matrix(0.05,0,0,0.05,17.95,0)" xlink:href="#ba"/><use transform="matrix(0.05,0,0,0.05,27.950000000000003,0)" xlink:href="#bu"/><use transform="matrix(0.05,0,0,0.05,40.9,0)" xlink:href="#bd"/><use transform="matrix(0.05,0,0,0.05,49.9,0)" xlink:href="#aW"/><use transform="matrix(0.05,0,0,0.05,59.900000000000006,0)" xlink:href="#bi"/></g><path fill="#333" d="M109-170H84l-4-78h32zm-65 0H19l-4-78h33" id="bM"/><path fill="#333" d="M84 4C-5 8 30-112 23-190h32v120c0 31 7 50 39 49 72-2 45-101 50-169h31l1 190h-30c-1-10 1-25-2-33-11 22-28 36-60 37" id="bN"/><g id="N"><use transform="matrix(0.05,0,0,0.05,0,0)" xlink:href="#bM"/><use transform="matrix(0.05,0,0,0.05,6.3500000000000005,0)" xlink:href="#bc"/><use transform="matrix(0.05,0,0,0.05,16.35,0)" xlink:href="#bb"/><use transform="matrix(0.05,0,0,0.05,20.3,0)" xlink:href="#bN"/><use transform="matrix(0.05,0,0,0.05,30.3,0)" xlink:href="#aW"/><use transform="matrix(0.05,0,0,0.05,40.3,0)" xlink:href="#bM"/><use transform="matrix(0.05,0,0,0.05,46.65,0)" xlink:href="#by"/><use transform="matrix(0.05,0,0,0.05,52.6,0)" xlink:href="#bd"/><use transform="matrix(0.05,0,0,0.05,61.6,0)" xlink:href="#aT"/><use transform="matrix(0.05,0,0,0.05,66.6,0)" xlink:href="#bs"/><use transform="matrix(0.05,0,0,0.05,75.6,0)" xlink:href="#bb"/><use transform="matrix(0.05,0,0,0.05,79.55,0)" xlink:href="#aW"/></g><g id="O"><use transform="matrix(0.05,0,0,0.05,0,0)" xlink:href="#bC"/><use transform="matrix(0.05,0,0,0.05,9,0)" xlink:href="#bE"/></g><g id="P"><use transform="matrix(0.05,0,0,0.05,0,0)" xlink:href="#bD"/><use transform="matrix(0.05,0,0,0.05,12,0)" xlink:href="#bG"/><use transform="matrix(0.05,0,0,0.05,22,0)" xlink:href="#bG"/><use transform="matrix(0.05,0,0,0.05,32,0)" xlink:href="#bb"/><use transform="matrix(0.05,0,0,0.05,35.95,0)" xlink:href="#aW"/></g><g id="Q"><use transform="matrix(0.05,0,0,0.05,0,0)" xlink:href="#bE"/><use transform="matrix(0.05,0,0,0.05,12,0)" xlink:href="#bu"/><use transform="matrix(0.05,0,0,0.05,24.950000000000003,0)" xlink:href="#aU"/><use transform="matrix(0.05,0,0,0.05,28.900000000000002,0)" xlink:href="#bA"/><use transform="matrix(0.05,0,0,0.05,33.900000000000006,0)" xlink:href="#aT"/></g><use transform="matrix(0.05,0,0,0.05,0,0)" xlink:href="#by" id="R"/><g id="S"><use transform="matrix(0.05,0,0,0.05,0,0)" xlink:href="#bz"/><use transform="matrix(0.05,0,0,0.05,14.950000000000001,0)" xlink:href="#aS"/><use transform="matrix(0.05,0,0,0.05,24.950000000000003,0)" xlink:href="#aX"/></g><g id="T"><use transform="matrix(0.05,0,0,0.05,0,0)" xlink:href="#aS"/><use transform="matrix(0.05,0,0,0.05,10,0)" xlink:href="#aZ"/><use transform="matrix(0.05,0,0,0.05,20,0)" xlink:href="#bn"/></g><path fill="#333" d="M233-177c-1 41-23 64-60 70L243 0h-38l-65-103H63V0H30v-248c88 3 205-21 203 71zM63-129c60-2 137 13 137-47 0-61-80-42-137-45v92" id="bO"/><g id="U"><use transform="matrix(0.05,0,0,0.05,0,0)" xlink:href="#bO"/><use transform="matrix(0.05,0,0,0.05,12.950000000000001,0)" xlink:href="#aW"/><use transform="matrix(0.05,0,0,0.05,22.950000000000003,0)" xlink:href="#aS"/><use transform="matrix(0.05,0,0,0.05,32.95,0)" xlink:href="#aX"/><use transform="matrix(0.05,0,0,0.05,41.95,0)" xlink:href="#aT"/></g><g id="V"><use transform="matrix(0.05,0,0,0.05,0,0)" xlink:href="#aR"/><use transform="matrix(0.05,0,0,0.05,12.950000000000001,0)" xlink:href="#aS"/><use transform="matrix(0.05,0,0,0.05,22.950000000000003,0)" xlink:href="#aT"/><use transform="matrix(0.05,0,0,0.05,27.950000000000003,0)" xlink:href="#aU"/><use transform="matrix(0.05,0,0,0.05,31.900000000000002,0)" xlink:href="#aV"/><use transform="matrix(0.05,0,0,0.05,40.900000000000006,0)" xlink:href="#aW"/></g><path fill="#333" d="M103-251c84 0 111 97 45 133-19 10-37 24-39 52H78c0-63 77-55 77-114 0-30-21-42-52-43-32 0-53 17-56 46l-32-2c7-45 34-72 88-72zM77 0v-35h34V0H77" id="bP"/><g id="W"><use transform="matrix(0.05,0,0,0.05,0,0)" xlink:href="#bC"/><use transform="matrix(0.05,0,0,0.05,9,0)" xlink:href="#aS"/><use transform="matrix(0.05,0,0,0.05,19,0)" xlink:href="#aV"/><use transform="matrix(0.05,0,0,0.05,28,0)" xlink:href="#aS"/><use transform="matrix(0.05,0,0,0.05,38,0)" xlink:href="#bP"/></g><g id="X"><use transform="matrix(0.05,0,0,0.05,0,0)" xlink:href="#bD"/><use transform="matrix(0.05,0,0,0.05,12,0)" xlink:href="#bb"/><use transform="matrix(0.05,0,0,0.05,15.949999999999998,0)" xlink:href="#bd"/><use transform="matrix(0.05,0,0,0.05,24.95,0)" xlink:href="#ba"/></g><path fill="#333" d="M50-224l7-37h49l-7 37H50zM6 0l37-190h49L55 0H6" id="bQ"/><path fill="#333" d="M151-194c95 0 34 128 28 194h-49l25-134c0-29-45-25-59-9C67-111 69-48 56 0H6l36-190h47l-4 32c15-20 33-36 66-36" id="bR"/><path fill="#333" d="M72-63c-8 23 5 39 32 30L98-1C54 14 12-6 23-64l18-93H15l7-33h28l24-45h31l-8 45h35l-6 33H90" id="bS"/><path fill="#333" d="M114-194c63-2 87 48 72 110H63c-3 28 1 55 31 54 21-1 32-13 37-29l44 13C160-14 137 4 91 4 41 4 11-22 11-73c0-71 33-119 103-121zm30 77c14-47-50-61-67-22-3 6-6 13-8 22h75" id="bT"/><path fill="#333" d="M132-28C118-9 101 4 69 4 30 4 10-23 10-62c0-70 24-129 92-132 31-1 47 14 56 35l19-102h49L179 0h-49zM62-69c0 22 7 39 29 39 45-2 54-45 57-90 2-27-10-40-33-40-44 0-53 48-53 91" id="bU"/><g id="Y"><use transform="matrix(0.05,0,0,0.05,0,0)" xlink:href="#bQ"/><use transform="matrix(0.05,0,0,0.05,5,0)" xlink:href="#bR"/><use transform="matrix(0.05,0,0,0.05,15.950000000000001,0)" xlink:href="#bS"/><use transform="matrix(0.05,0,0,0.05,21.900000000000002,0)" xlink:href="#bT"/><use transform="matrix(0.05,0,0,0.05,31.900000000000002,0)" xlink:href="#bR"/><use transform="matrix(0.05,0,0,0.05,42.85,0)" xlink:href="#bU"/><use transform="matrix(0.05,0,0,0.05,53.800000000000004,0)" xlink:href="#bT"/><use transform="matrix(0.05,0,0,0.05,63.800000000000004,0)" xlink:href="#bU"/></g><g id="Z"><use transform="matrix(0.05,0,0,0.05,0,0)" xlink:href="#bA"/><use transform="matrix(0.05,0,0,0.05,5,0)" xlink:href="#ba"/><use transform="matrix(0.05,0,0,0.05,15,0)" xlink:href="#bi"/></g><g id="aa"><use transform="matrix(0.05,0,0,0.05,0,0)" xlink:href="#bj"/><use transform="matrix(0.05,0,0,0.05,14.950000000000001,0)" xlink:href="#ba"/><use transform="matrix(0.05,0,0,0.05,24.950000000000003,0)" xlink:href="#bm"/><use transform="matrix(0.05,0,0,0.05,34.95,0)" xlink:href="#aU"/><use transform="matrix(0.05,0,0,0.05,38.900000000000006,0)" xlink:href="#bb"/><use transform="matrix(0.05,0,0,0.05,42.85000000000001,0)" xlink:href="#aW"/><use transform="matrix(0.05,0,0,0.05,52.85,0)" xlink:href="#bB"/><use transform="matrix(0.05,0,0,0.05,57.85,0)" xlink:href="#bB"/><use transform="matrix(0.05,0,0,0.05,62.85,0)" xlink:href="#bB"/></g><path fill="#333" d="M63-170c30 0 51 21 51 51 0 31-20 52-51 52s-52-21-52-52 21-51 52-51" id="bV"/><use transform="matrix(0.05,0,0,0.05,0,0)" xlink:href="#bV" id="ab"/><path fill="#333" d="M186 0v-106H76V0H24v-248h52v99h110v-99h50V0h-50" id="bW"/><path fill="#333" d="M136-208V0H84v-208H4v-40h212v40h-80" id="bX"/><path fill="#333" d="M24 0v-248h52v208h133V0H24" id="bY"/><path fill="#333" d="M4 7l51-268h42L46 7H4" id="bZ"/><path fill="#333" d="M176-78C186 10 51 31 16-35c-5-9-9-19-11-32l52-8c4 21 12 37 35 38 23 0 32-16 32-40v-130H75v-41h101v170" id="ca"/><path fill="#333" d="M169-182c-1-43-94-46-97-3 18 66 151 10 154 114 3 95-165 93-204 36-6-8-10-19-12-30l50-8c3 46 112 56 116 5-17-69-150-10-154-114-4-87 153-88 188-35 5 8 8 18 10 28" id="cb"/><g id="ac"><use transform="matrix(0.05,0,0,0.05,0,0)" xlink:href="#bW"/><use transform="matrix(0.05,0,0,0.05,12.950000000000001,0)" xlink:href="#bX"/><use transform="matrix(0.05,0,0,0.05,23.900000000000002,0)" xlink:href="#aM"/><use transform="matrix(0.05,0,0,0.05,38.85,0)" xlink:href="#bY"/><use transform="matrix(0.05,0,0,0.05,49.800000000000004,0)" xlink:href="#bZ"/><use transform="matrix(0.05,0,0,0.05,54.800000000000004,0)" xlink:href="#ca"/><use transform="matrix(0.05,0,0,0.05,64.80000000000001,0)" xlink:href="#cb"/></g><path fill="#333" d="M231 0h-52l-39-155L100 0H48L-1-190h46L77-45c9-52 24-97 36-145h53l37 145 32-145h46" id="cc"/><path fill="#333" d="M114-157C55-157 80-60 75 0H25v-261h50l-1 109c12-26 28-41 61-42 86-1 58 113 63 194h-50c-7-57 23-157-34-157" id="cd"/><g id="ad"><use transform="matrix(0.05,0,0,0.05,0,0)" xlink:href="#cc"/><use transform="matrix(0.05,0,0,0.05,14,0)" xlink:href="#aO"/><use transform="matrix(0.05,0,0,0.05,19,0)" xlink:href="#aJ"/><use transform="matrix(0.05,0,0,0.05,24.95,0)" xlink:href="#cd"/></g><path fill="#333" d="M24 0v-248h195v40H76v63h132v40H76v65h150V0H24" id="ce"/><path fill="#333" d="M190-63c-7 42-38 67-86 67-59 0-84-38-90-98-12-110 154-137 174-36l-49 2c-2-19-15-32-35-32-30 0-35 28-38 64-6 74 65 87 74 30" id="cf"/><path fill="#333" d="M135-150c-39-12-60 13-60 57V0H25l-1-190h47c2 13-1 29 3 40 6-28 27-53 61-41v41" id="cg"/><path fill="#333" d="M135-194c87-1 58 113 63 194h-50c-7-57 23-157-34-157-59 0-34 97-39 157H25l-1-190h47c2 12-1 28 3 38 12-26 28-41 61-42" id="ch"/><path fill="#333" d="M67-125c0 53 21 87 73 88 37 1 54-22 65-47l45 17C233-25 199 4 140 4 58 4 20-42 15-125 8-235 124-281 211-232c18 10 29 29 36 50l-46 12c-8-25-30-41-62-41-52 0-71 34-72 86" id="ci"/><path fill="#333" d="M88-194c31-1 46 15 58 34l-1-101h50l1 261h-48c-2-10 0-23-3-31C134-8 116 4 84 4 32 4 16-41 15-95c0-56 19-97 73-99zm17 164c33 0 40-30 41-66 1-37-9-64-41-64s-38 30-39 65c0 43 13 65 39 65" id="cj"/><path fill="#333" d="M128 0H69L1-190h53L99-40l48-150h52" id="ck"/><path fill="#333" d="M133-34C117-15 103 5 69 4 32 3 11-16 11-54c-1-60 55-63 116-61 1-26-3-47-28-47-18 1-26 9-28 27l-52-2c7-38 36-58 82-57s74 22 75 68l1 82c-1 14 12 18 25 15v27c-30 8-71 5-69-32zm-48 3c29 0 43-24 42-57-32 0-66-3-65 30 0 17 8 27 23 27" id="cl"/><g id="ae"><use transform="matrix(0.05,0,0,0.05,0,0)" xlink:href="#ce"/><use transform="matrix(0.05,0,0,0.05,12,0)" xlink:href="#aP"/><use transform="matrix(0.05,0,0,0.05,17,0)" xlink:href="#aG"/><use transform="matrix(0.05,0,0,0.05,27,0)" xlink:href="#cf"/><use transform="matrix(0.05,0,0,0.05,37,0)" xlink:href="#aJ"/><use transform="matrix(0.05,0,0,0.05,42.95,0)" xlink:href="#cg"/><use transform="matrix(0.05,0,0,0.05,49.95,0)" xlink:href="#aK"/><use transform="matrix(0.05,0,0,0.05,60.900000000000006,0)" xlink:href="#ch"/><use transform="matrix(0.05,0,0,0.05,71.85000000000001,0)" xlink:href="#bZ"/><use transform="matrix(0.05,0,0,0.05,76.85000000000001,0)" xlink:href="#ci"/><use transform="matrix(0.05,0,0,0.05,89.80000000000001,0)" xlink:href="#aK"/><use transform="matrix(0.05,0,0,0.05,100.75000000000001,0)" xlink:href="#cg"/><use transform="matrix(0.05,0,0,0.05,107.75,0)" xlink:href="#cj"/><use transform="matrix(0.05,0,0,0.05,118.7,0)" xlink:href="#aK"/><use transform="matrix(0.05,0,0,0.05,129.65,0)" xlink:href="#ck"/><use transform="matrix(0.05,0,0,0.05,139.65,0)" xlink:href="#cl"/></g><g id="af"><use transform="matrix(0.05,0,0,0.05,0,0)" xlink:href="#cl"/><use transform="matrix(0.05,0,0,0.05,10,0)" xlink:href="#ch"/><use transform="matrix(0.05,0,0,0.05,20.950000000000003,0)" xlink:href="#cj"/></g><path fill="#333" d="M76-54c-1 42 2 86-19 110H24C36 42 46 24 48 0H25v-54h51" id="cm"/><g id="ag"><use transform="matrix(0.05,0,0,0.05,0,0)" xlink:href="#cj"/><use transform="matrix(0.05,0,0,0.05,10.950000000000001,0)" xlink:href="#aG"/><use transform="matrix(0.05,0,0,0.05,20.950000000000003,0)" xlink:href="#cg"/><use transform="matrix(0.05,0,0,0.05,27.950000000000003,0)" xlink:href="#aO"/><use transform="matrix(0.05,0,0,0.05,32.95,0)" xlink:href="#ck"/><use transform="matrix(0.05,0,0,0.05,42.95,0)" xlink:href="#cl"/><use transform="matrix(0.05,0,0,0.05,52.95,0)" xlink:href="#aJ"/><use transform="matrix(0.05,0,0,0.05,58.900000000000006,0)" xlink:href="#aO"/><use transform="matrix(0.05,0,0,0.05,63.900000000000006,0)" xlink:href="#ck"/><use transform="matrix(0.05,0,0,0.05,73.9,0)" xlink:href="#aG"/><use transform="matrix(0.05,0,0,0.05,83.9,0)" xlink:href="#aH"/><use transform="matrix(0.05,0,0,0.05,93.9,0)" xlink:href="#cm"/></g><g id="ah"><use transform="matrix(0.05,0,0,0.05,0,0)" xlink:href="#aK"/><use transform="matrix(0.05,0,0,0.05,10.950000000000001,0)" xlink:href="#cg"/></g><path fill="#333" d="M24-248c93 1 206-16 204 79-1 75-69 88-152 82V0H24v-248zm52 121c47 0 100 7 100-41 0-47-54-39-100-39v80" id="cn"/><path fill="#333" d="M199 0l-22-63H83L61 0H9l90-248h61L250 0h-51zm-33-102l-36-108c-10 38-24 72-36 108h72" id="co"/><g id="ai"><use transform="matrix(0.05,0,0,0.05,0,0)" xlink:href="#cn"/><use transform="matrix(0.05,0,0,0.05,12,0)" xlink:href="#aQ"/><use transform="matrix(0.05,0,0,0.05,27.950000000000003,0)" xlink:href="#co"/></g><path fill="#333" d="M76-208v77h127v40H76V0H24v-248h183v40H76" id="cp"/><path fill="#333" d="M85 4C-2 5 27-109 22-190h50c7 57-23 150 33 157 60-5 35-97 40-157h50l1 190h-47c-2-12 1-28-3-38-12 25-28 42-61 42" id="cq"/><g id="aj"><use transform="matrix(0.05,0,0,0.05,0,0)" xlink:href="#cp"/><use transform="matrix(0.05,0,0,0.05,10.950000000000001,0)" xlink:href="#aP"/><use transform="matrix(0.05,0,0,0.05,15.950000000000001,0)" xlink:href="#cq"/><use transform="matrix(0.05,0,0,0.05,26.900000000000002,0)" xlink:href="#aJ"/><use transform="matrix(0.05,0,0,0.05,32.85,0)" xlink:href="#aJ"/><use transform="matrix(0.05,0,0,0.05,38.800000000000004,0)" xlink:href="#aG"/><use transform="matrix(0.05,0,0,0.05,48.800000000000004,0)" xlink:href="#cg"/></g><path fill="#333" d="M182-130c37 4 62 22 62 59C244 23 116-4 24 0v-248c84 5 203-23 205 63 0 31-19 50-47 55zM76-148c40-3 101 13 101-30 0-44-60-28-101-31v61zm0 110c48-3 116 14 116-37 0-48-69-32-116-35v72" id="cr"/><path fill="#333" d="M12 0v-35l95-120H19v-35h142v35L67-36h103V0H12" id="cs"/><path fill="#333" d="M110-251c83-7 118 89 53 130-17 10-36 21-38 46H78c2-56 65-53 71-103 2-21-15-35-38-34-25 1-41 14-44 38l-50-2c6-48 39-70 93-75zM77 0v-47h51V0H77" id="ct"/><g id="ak"><use transform="matrix(0.05,0,0,0.05,0,0)" xlink:href="#cr"/><use transform="matrix(0.05,0,0,0.05,12.950000000000001,0)" xlink:href="#aP"/><use transform="matrix(0.05,0,0,0.05,17.950000000000003,0)" xlink:href="#cl"/><use transform="matrix(0.05,0,0,0.05,27.950000000000003,0)" xlink:href="#cs"/><use transform="matrix(0.05,0,0,0.05,36.95,0)" xlink:href="#aK"/><use transform="matrix(0.05,0,0,0.05,47.900000000000006,0)" xlink:href="#cg"/><use transform="matrix(0.05,0,0,0.05,54.900000000000006,0)" xlink:href="#ct"/></g><path fill="#333" d="M24 0v-54h51V0H24" id="cu"/><g id="al"><use transform="matrix(0.05,0,0,0.05,0,0)" xlink:href="#cu"/><use transform="matrix(0.05,0,0,0.05,5,0)" xlink:href="#cu"/><use transform="matrix(0.05,0,0,0.05,10,0)" xlink:href="#cu"/></g><g id="am"><use transform="matrix(0.08703703703703701,0,0,0.08703703703703701,0,0)" xlink:href="#bW"/><use transform="matrix(0.08703703703703701,0,0,0.08703703703703701,22.542592592592584,0)" xlink:href="#bX"/><use transform="matrix(0.08703703703703701,0,0,0.08703703703703701,41.60370370370369,0)" xlink:href="#aM"/><use transform="matrix(0.08703703703703701,0,0,0.08703703703703701,67.62777777777775,0)" xlink:href="#bY"/><use transform="matrix(0.08703703703703701,0,0,0.08703703703703701,86.68888888888885,0)" xlink:href="#bZ"/><use transform="matrix(0.08703703703703701,0,0,0.08703703703703701,95.39259259259255,0)" xlink:href="#ci"/><use transform="matrix(0.08703703703703701,0,0,0.08703703703703701,117.93518518518513,0)" xlink:href="#cb"/><use transform="matrix(0.08703703703703701,0,0,0.08703703703703701,138.82407407407402,0)" xlink:href="#cb"/><use transform="matrix(0.08703703703703701,0,0,0.08703703703703701,159.7129629629629,0)" xlink:href="#bZ"/><use transform="matrix(0.08703703703703701,0,0,0.08703703703703701,168.4166666666666,0)" xlink:href="#ca"/><use transform="matrix(0.08703703703703701,0,0,0.08703703703703701,185.824074074074,0)" xlink:href="#cb"/></g><g id="ao"><use transform="matrix(0.05,0,0,0.05,0,0)" xlink:href="#bB"/><use transform="matrix(0.05,0,0,0.05,5,0)" xlink:href="#bB"/><use transform="matrix(0.05,0,0,0.05,10,0)" xlink:href="#bB"/></g><g id="ap"><use transform="matrix(0.05,0,0,0.05,0,0)" xlink:href="#aU"/><use transform="matrix(0.05,0,0,0.05,3.95,0)" xlink:href="#bd"/></g><g id="aq"><use transform="matrix(0.05,0,0,0.05,0,0)" xlink:href="#aT"/><use transform="matrix(0.05,0,0,0.05,5,0)" xlink:href="#aY"/><use transform="matrix(0.05,0,0,0.05,15,0)" xlink:href="#aW"/></g><g id="ar"><use transform="matrix(0.05,0,0,0.05,0,0)" xlink:href="#bj"/><use transform="matrix(0.05,0,0,0.05,14.950000000000001,0)" xlink:href="#ba"/><use transform="matrix(0.05,0,0,0.05,24.950000000000003,0)" xlink:href="#bd"/><use transform="matrix(0.05,0,0,0.05,33.95,0)" xlink:href="#aT"/></g><g id="as"><use transform="matrix(0.05,0,0,0.05,0,0)" xlink:href="#aV"/><use transform="matrix(0.05,0,0,0.05,9,0)" xlink:href="#aW"/><use transform="matrix(0.05,0,0,0.05,19,0)" xlink:href="#bi"/><use transform="matrix(0.05,0,0,0.05,24.95,0)" xlink:href="#bd"/><use transform="matrix(0.05,0,0,0.05,33.95,0)" xlink:href="#aS"/><use transform="matrix(0.05,0,0,0.05,43.95,0)" xlink:href="#aT"/><use transform="matrix(0.05,0,0,0.05,48.95,0)" xlink:href="#aU"/><use transform="matrix(0.05,0,0,0.05,52.900000000000006,0)" xlink:href="#bb"/><use transform="matrix(0.05,0,0,0.05,56.85,0)" xlink:href="#aW"/></g><g id="at"><use transform="matrix(0.05,0,0,0.05,0,0)" xlink:href="#bM"/><use transform="matrix(0.05,0,0,0.05,6.3500000000000005,0)" xlink:href="#ba"/><use transform="matrix(0.05,0,0,0.05,16.35,0)" xlink:href="#bG"/><use transform="matrix(0.05,0,0,0.05,26.35,0)" xlink:href="#aW"/><use transform="matrix(0.05,0,0,0.05,36.35,0)" xlink:href="#aZ"/><use transform="matrix(0.05,0,0,0.05,46.35,0)" xlink:href="#bM"/></g><g id="au"><use transform="matrix(0.05,0,0,0.05,0,0)" xlink:href="#aX"/><use transform="matrix(0.05,0,0,0.05,9,0)" xlink:href="#aY"/><use transform="matrix(0.05,0,0,0.05,19,0)" xlink:href="#ba"/><use transform="matrix(0.05,0,0,0.05,29,0)" xlink:href="#aU"/><use transform="matrix(0.05,0,0,0.05,32.95,0)" xlink:href="#aX"/><use transform="matrix(0.05,0,0,0.05,41.95,0)" xlink:href="#aW"/></g><g id="av"><use transform="matrix(0.05,0,0,0.05,0,0)" xlink:href="#bj"/><use transform="matrix(0.05,0,0,0.05,14.950000000000001,0)" xlink:href="#aW"/></g><g id="aw"><use transform="matrix(0.05,0,0,0.05,0,0)" xlink:href="#bq"/><use transform="matrix(0.05,0,0,0.05,5.95,0)" xlink:href="#bN"/><use transform="matrix(0.05,0,0,0.05,15.949999999999998,0)" xlink:href="#bd"/><use transform="matrix(0.05,0,0,0.05,24.95,0)" xlink:href="#aW"/></g><g id="ax"><use transform="matrix(0.05,0,0,0.05,0,0)" xlink:href="#bv"/><use transform="matrix(0.05,0,0,0.05,10.950000000000001,0)" xlink:href="#bE"/></g><g id="ay"><use transform="matrix(0.05,0,0,0.05,0,0)" xlink:href="#aU"/><use transform="matrix(0.05,0,0,0.05,3.95,0)" xlink:href="#bA"/></g><g id="az"><use transform="matrix(0.05,0,0,0.05,0,0)" xlink:href="#bs"/><use transform="matrix(0.05,0,0,0.05,9,0)" xlink:href="#ba"/><use transform="matrix(0.05,0,0,0.05,19,0)" xlink:href="#bN"/></g><g id="aA"><use transform="matrix(0.05,0,0,0.05,0,0)" xlink:href="#bG"/><use transform="matrix(0.05,0,0,0.05,10,0)" xlink:href="#bi"/><use transform="matrix(0.05,0,0,0.05,15.949999999999998,0)" xlink:href="#aW"/><use transform="matrix(0.05,0,0,0.05,25.950000000000003,0)" xlink:href="#bA"/><use transform="matrix(0.05,0,0,0.05,30.950000000000003,0)" xlink:href="#aW"/><use transform="matrix(0.05,0,0,0.05,40.95,0)" xlink:href="#bi"/><use transform="matrix(0.05,0,0,0.05,46.900000000000006,0)" xlink:href="#bt"/><use transform="matrix(0.05,0,0,0.05,52.85,0)" xlink:href="#bB"/></g><path fill="#333" d="M47-170H22l-4-78h33" id="cv"/><g id="aB"><use transform="matrix(0.05,0,0,0.05,0,0)" xlink:href="#bv"/><use transform="matrix(0.05,0,0,0.05,10.950000000000001,0)" xlink:href="#aY"/><use transform="matrix(0.05,0,0,0.05,20.950000000000003,0)" xlink:href="#aS"/><use transform="matrix(0.05,0,0,0.05,30.950000000000003,0)" xlink:href="#aT"/><use transform="matrix(0.05,0,0,0.05,35.95,0)" xlink:href="#cv"/><use transform="matrix(0.05,0,0,0.05,39.35,0)" xlink:href="#bd"/></g><g id="aC"><use transform="matrix(0.05,0,0,0.05,0,0)" xlink:href="#bj"/><use transform="matrix(0.05,0,0,0.05,14.950000000000001,0)" xlink:href="#bs"/></g><g id="aD"><use transform="matrix(0.05,0,0,0.05,0,0)" xlink:href="#bM"/><use transform="matrix(0.05,0,0,0.05,6.3500000000000005,0)" xlink:href="#bd"/><use transform="matrix(0.05,0,0,0.05,15.350000000000001,0)" xlink:href="#aT"/><use transform="matrix(0.05,0,0,0.05,20.35,0)" xlink:href="#bi"/><use transform="matrix(0.05,0,0,0.05,26.3,0)" xlink:href="#aS"/><use transform="matrix(0.05,0,0,0.05,36.3,0)" xlink:href="#aT"/><use transform="matrix(0.05,0,0,0.05,41.3,0)" xlink:href="#aW"/><use transform="matrix(0.05,0,0,0.05,51.29999999999999,0)" xlink:href="#bc"/><use transform="matrix(0.05,0,0,0.05,61.29999999999999,0)" xlink:href="#aU"/><use transform="matrix(0.05,0,0,0.05,65.25,0)" xlink:href="#aX"/></g><g id="aE"><use transform="matrix(0.05,0,0,0.05,0,0)" xlink:href="#bG"/><use transform="matrix(0.05,0,0,0.05,10,0)" xlink:href="#bb"/><use transform="matrix(0.05,0,0,0.05,13.949999999999998,0)" xlink:href="#aS"/><use transform="matrix(0.05,0,0,0.05,23.95,0)" xlink:href="#aT"/><use transform="matrix(0.05,0,0,0.05,28.950000000000003,0)" xlink:href="#bA"/><use transform="matrix(0.05,0,0,0.05,33.95,0)" xlink:href="#ba"/><use transform="matrix(0.05,0,0,0.05,43.95,0)" xlink:href="#bi"/><use transform="matrix(0.05,0,0,0.05,49.900000000000006,0)" xlink:href="#bj"/><use transform="matrix(0.05,0,0,0.05,64.85000000000001,0)" xlink:href="#bM"/><use transform="matrix(0.05,0,0,0.05,71.2,0)" xlink:href="#bB"/></g></defs></g></svg>